#N canvas 468 100 960 536 12;
#X obj 820 580 metro;
#X floatatom 852 557 5 0 0 0 - - - 0;
#X obj 819 561 tgl 15 0 empty empty empty 17 7 0 10 #fcfcfc #000000
#000000 0 1;
#X floatatom 865 657 5 0 0 0 - - - 0;
#X obj 865 632 cyclone/counter 0 20;
#X obj 908 662 catch~ l;
#X obj 974 662 catch~ r;
#X obj 936 760 dac~;
#X obj 820 605 expr random (1 \, 20);
#X floatatom 820 630 5 0 0 0 - - - 0;
#X msg 886 516 \; pd dsp 1;
#X obj 819 469 loadbang;
#X msg 852 534 750;
#X obj 819 496 del 1000;
#X msg 819 521 1;
#X obj 28 35 sampler;
#X obj 28 152 throw~ l;
#X obj 190 35 sampler;
#X obj 190 152 throw~ r;
#X obj 28 11 r smp;
#X obj 190 11 r smp;
#X obj 27 203 sampler;
#X obj 27 320 throw~ l;
#X obj 189 203 sampler;
#X obj 189 320 throw~ r;
#X obj 27 179 r smp;
#X obj 189 179 r smp;
#X obj 24 372 sampler;
#X obj 24 489 throw~ l;
#X obj 186 372 sampler;
#X obj 186 489 throw~ r;
#X obj 24 348 r smp;
#X obj 186 348 r smp;
#X obj 23 540 sampler;
#X obj 23 657 throw~ l;
#X obj 185 540 sampler;
#X obj 185 657 throw~ r;
#X obj 23 516 r smp;
#X obj 185 516 r smp;
#X obj 348 31 sampler;
#X obj 348 148 throw~ l;
#X obj 510 31 sampler;
#X obj 510 148 throw~ r;
#X obj 348 7 r smp;
#X obj 510 7 r smp;
#X obj 347 199 sampler;
#X obj 347 316 throw~ l;
#X obj 509 199 sampler;
#X obj 509 316 throw~ r;
#X obj 347 175 r smp;
#X obj 509 175 r smp;
#X obj 344 368 sampler;
#X obj 344 485 throw~ l;
#X obj 506 368 sampler;
#X obj 506 485 throw~ r;
#X obj 344 344 r smp;
#X obj 506 344 r smp;
#X obj 343 536 sampler;
#X obj 343 653 throw~ l;
#X obj 505 536 sampler;
#X obj 505 653 throw~ r;
#X obj 343 512 r smp;
#X obj 505 512 r smp;
#X obj 21 685 sampler;
#X obj 21 802 throw~ l;
#X obj 183 685 sampler;
#X obj 183 802 throw~ r;
#X obj 341 681 sampler;
#X obj 341 798 throw~ l;
#X obj 503 681 sampler;
#X obj 503 798 throw~ r;
#X obj 708 59 r pad;
#X obj 703 182 r motionX;
#X obj 788 182 r motionY;
#X obj 871 179 r gyro;
#X floatatom 708 109 5 0 0 0 - - - 0;
#X obj 708 84 unpack f f;
#X floatatom 775 108 5 0 0 0 - - - 0;
#X obj 775 133 s smp;
#X obj 790 84 print pads;
#X obj 703 212 print motX;
#X obj 788 212 print motY;
#X obj 872 209 print gyro;
#X obj 789 235 * 9.8;
#X obj 789 260 / 19.6;
#X obj 789 285 clip 0 1;
#X obj 789 310 s amp;
#X obj 94 11 r amp;
#X obj 256 11 r amp;
#X obj 414 7 r amp;
#X obj 576 7 r amp;
#X obj 704 236 / 9.8;
#X obj 704 261 + 1;
#X obj 704 286 clip 0.5 2;
#X obj 704 311 s vel;
#X obj 119 345 r vel;
#X obj 285 346 r vel;
#X obj 440 343 r vel;
#X obj 605 341 r vel;
#X connect 0 0 4 0;
#X connect 0 0 8 0;
#X connect 1 0 0 1;
#X connect 2 0 0 0;
#X connect 4 0 3 0;
#X connect 5 0 7 0;
#X connect 5 0 7 1;
#X connect 6 0 7 1;
#X connect 6 0 7 0;
#X connect 8 0 9 0;
#X connect 11 0 12 0;
#X connect 11 0 13 0;
#X connect 12 0 1 0;
#X connect 13 0 14 0;
#X connect 13 0 10 0;
#X connect 14 0 2 0;
#X connect 15 0 16 0;
#X connect 17 0 18 0;
#X connect 19 0 15 0;
#X connect 20 0 17 0;
#X connect 21 0 22 0;
#X connect 23 0 24 0;
#X connect 25 0 21 0;
#X connect 26 0 23 0;
#X connect 27 0 28 0;
#X connect 29 0 30 0;
#X connect 31 0 27 0;
#X connect 32 0 29 0;
#X connect 33 0 34 0;
#X connect 35 0 36 0;
#X connect 37 0 33 0;
#X connect 38 0 35 0;
#X connect 39 0 40 0;
#X connect 41 0 42 0;
#X connect 43 0 39 0;
#X connect 44 0 41 0;
#X connect 45 0 46 0;
#X connect 47 0 48 0;
#X connect 49 0 45 0;
#X connect 50 0 47 0;
#X connect 51 0 52 0;
#X connect 53 0 54 0;
#X connect 55 0 51 0;
#X connect 56 0 53 0;
#X connect 57 0 58 0;
#X connect 59 0 60 0;
#X connect 61 0 57 0;
#X connect 62 0 59 0;
#X connect 63 0 64 0;
#X connect 65 0 66 0;
#X connect 67 0 68 0;
#X connect 69 0 70 0;
#X connect 71 0 76 0;
#X connect 71 0 79 0;
#X connect 72 0 80 0;
#X connect 72 0 91 0;
#X connect 73 0 81 0;
#X connect 73 0 83 0;
#X connect 74 0 82 0;
#X connect 76 0 75 0;
#X connect 76 1 77 0;
#X connect 77 0 78 0;
#X connect 83 0 84 0;
#X connect 84 0 85 0;
#X connect 85 0 86 0;
#X connect 87 0 15 1;
#X connect 88 0 17 1;
#X connect 89 0 39 1;
#X connect 90 0 41 1;
#X connect 91 0 92 0;
#X connect 92 0 93 0;
#X connect 93 0 94 0;
#X connect 95 0 27 2;
#X connect 96 0 29 2;
#X connect 97 0 51 2;
#X connect 98 0 53 2;
