#N canvas 508 121 723 660 12;
#X obj 100 100 cnv 15 140 112 empty empty empty 20 12 0 14 #e0e0e0
#404040 0;
#N canvas 0 22 450 300 (subpatch) 0;
#X array \$0-array 254635 float 2;
#X coords 0 1 254635 -1 131 72 1 0 0;
#X restore 105 119 graph;
#X obj 298 217 soundfiler;
#X obj 298 253 nbx 10 14 -1e+37 1e+37 0 0 empty empty samples 100 8
0 10 #c4c4fc #000000 #000000 0 256;
#X obj 280 499 line~;
#X msg 280 476 0 \, \$1 \$2;
#X obj 280 453 pack f f, f 9;
#X obj 280 301 t f f, f 9;
#X obj 340 326 expr int (($f1 / 44100) * 1000);
#X obj 341 362 nbx 5 14 -1e+37 1e+37 0 0 empty empty msec 0 -8 0 10
#c4c4fc #000000 #000000 0 256;
#X text 353 299 conversiˇn de samples a milisegundos usando expr;
#X obj 108 194 hsl 126 15 0 2 0 0 empty empty empty -2 -8 0 10 #e0c4fc
#000000 #000000 0 1;
#X obj 341 430 *;
#X text 398 358 velocidad correcta de reproducciˇn;
#X text 533 395 control de velocidad;
#X obj 359 413 nbx 5 14 -1e+37 1e+37 0 0 empty empty empty 0 -8 0 10
#fcfcfc #000000 #000000 0 256;
#X msg 254 243 bang;
#X obj 280 277 f;
#X obj 298 168 pack s f;
#X obj 351 57 f \$0;
#X floatatom 298 77 5 0 0 0 - - - 0;
#X floatatom 298 122 5 0 0 0 - - - 0;
#X obj 298 99 - 1003;
#X obj 281 522 tabread~ \$0-array;
#X obj 281 588 outlet~;
#X obj 254 194 inlet;
#X obj 254 219 sel;
#X msg 105 52 1;
#X obj 105 279 openpanel;
#X msg 105 256 bang;
#X obj 105 304 print;
#X msg 298 144 symbol \$1.aiff;
#X msg 298 190 read -resize \$1 \$2-array;
#X obj 351 32 r loadbang;
#X obj 490 393 inlet;
#X obj 412 527 inlet;
#X obj 281 547 *~ 1;
#X text 457 525 control de amplitud;
#X obj 105 217 s ctrl_velocidad;
#X obj 359 391 r ctrl_velocidad;
#X text 154 99 amp;
#X text 211 100 vel;
#X text 102 99 tri;
#X connect 2 0 3 0;
#X connect 3 0 17 1;
#X connect 4 0 23 0;
#X connect 5 0 4 0;
#X connect 6 0 5 0;
#X connect 7 0 6 0;
#X connect 7 1 8 0;
#X connect 8 0 9 0;
#X connect 9 0 12 0;
#X connect 11 0 38 0;
#X connect 12 0 6 1;
#X connect 15 0 12 1;
#X connect 16 0 17 0;
#X connect 17 0 7 0;
#X connect 18 0 32 0;
#X connect 19 0 18 1;
#X connect 19 0 20 0;
#X connect 20 0 22 0;
#X connect 21 0 31 0;
#X connect 22 0 21 0;
#X connect 22 0 26 1;
#X connect 23 0 36 0;
#X connect 25 0 26 0;
#X connect 26 0 16 0;
#X connect 27 0 11 0;
#X connect 28 0 30 0;
#X connect 29 0 28 0;
#X connect 31 0 18 0;
#X connect 32 0 2 0;
#X connect 33 0 19 0;
#X connect 33 0 27 0;
#X connect 34 0 15 0;
#X connect 35 0 36 1;
#X connect 36 0 24 0;
#X connect 39 0 15 0;
#X coords 0 -1 1 1 140 112 2 100 100;
